<svg width="24" height="24" viewBox="0 0 24 24" fill="none" xmlns="http://www.w3.org/2000/svg">
<path d="M11.625 23.25C18.0453 23.25 23.25 18.0453 23.25 11.625C23.25 5.20469 18.0453 0 11.625 0C5.20469 0 0 5.20469 0 11.625C0 18.0453 5.20469 23.25 11.625 23.25Z" fill="#E0F2F2"/>
<path d="M20.9539 18.553C19.8697 17.1015 18.4619 15.9229 16.8423 15.1108C15.2228 14.2987 13.4362 13.8756 11.6244 13.875C9.8127 13.8744 8.0258 14.2964 6.40574 15.1075C4.78569 15.9185 3.37712 17.0962 2.29199 18.547C3.37157 20.0052 4.77781 21.1902 6.39796 22.0069C8.0181 22.8236 9.80707 23.2493 11.6214 23.2499C13.4358 23.2504 15.225 22.8259 16.8457 22.0102C18.4663 21.1946 19.8734 20.0105 20.9539 18.553Z" fill="#4DACA5"/>
<path d="M11.625 12.375C14.1103 12.375 16.125 10.3603 16.125 7.875C16.125 5.38972 14.1103 3.375 11.625 3.375C9.13972 3.375 7.125 5.38972 7.125 7.875C7.125 10.3603 9.13972 12.375 11.625 12.375Z" fill="#4DACA5"/>
</svg>
