<svg width="91" height="20" viewBox="0 0 91 20" fill="none" xmlns="http://www.w3.org/2000/svg">
<g clip-path="url(#clip0_27132_84666)">
<path d="M13.4012 0.786836C13.9938 1.13264 14.4771 1.63839 14.7956 2.24616C15.1141 2.85392 15.255 3.53911 15.2021 4.22323C15.0859 5.01434 14.9219 5.79768 14.711 6.56895H10.2915C10.3463 6.18696 10.5096 5.75069 10.5644 5.31442C10.607 5.12384 10.6045 4.92596 10.5571 4.73653C10.5097 4.54709 10.4188 4.37133 10.2915 4.22323C9.90887 3.97277 9.47407 3.81308 9.02031 3.75637C8.56654 3.69966 8.10582 3.74743 7.67334 3.89603C7.32616 4.05522 7.03861 4.32072 6.8523 4.65413C6.66598 4.98754 6.59056 5.37158 6.63694 5.75069C6.74601 6.89616 8.38253 7.60535 8.87359 7.93205C10.5101 9.02323 13.3464 10.223 13.2921 12.7868C13.384 14.6961 12.8263 16.5801 11.7099 18.1317C9.74614 20.2623 6.52737 20.0969 3.74588 19.8788C2.38228 19.6059 0.909611 19.0605 0.363765 17.7512C-0.182082 16.4419 -0.0725067 14.3691 0.418552 12.8416H4.67321C4.50936 13.6056 3.85495 15.1894 5.00042 15.8965C5.41409 16.145 5.88947 16.2716 6.37191 16.2619C6.85435 16.2522 7.32426 16.1066 7.72762 15.8418C8.07987 15.5278 8.3342 15.1191 8.46016 14.6644C8.58612 14.2097 8.57836 13.7283 8.43783 13.2779C8.21969 12.5677 7.5105 12.2415 6.96668 11.8575C5.54626 10.8754 3.91177 10.0028 2.7663 8.69349C1.62084 7.38417 2.05508 3.84124 3.30961 2.20269C4.56415 0.564135 7.99851 -0.140495 10.8394 0.0213316C11.7354 0.10493 12.6061 0.365099 13.4012 0.786836Z" fill="#1D4293"/>
<path d="M59.8221 3.78703H53.7128L52.7306 7.98741H57.5311L56.7677 11.5329H51.9129L50.9308 15.8423H57.2582L56.44 19.4441H45.5849C46.2951 16.826 47.8216 11.4253 47.8216 11.4253L55.0758 10.88L48.3121 10.3326L55.4578 9.78728L48.4765 9.24194L55.677 8.6966L48.6941 8.09647L50.0034 0.404907H60.6403L59.8221 3.78703Z" fill="#009B94"/>
<path d="M64.4587 5.64122H68.1112L67.295 9.18719H63.6425L62.1663 15.3508C62.1386 15.5023 62.1609 15.6586 62.2297 15.7963C62.2986 15.934 62.4104 16.0456 62.5483 16.1143C63.4208 16.3872 64.512 16.1691 65.4941 16.2233L64.7839 19.3873C63.1474 19.7693 61.0203 19.9874 59.4928 19.2235C58.9897 18.9656 58.5664 18.5754 58.2684 18.0948C57.9705 17.6143 57.8093 17.0616 57.802 16.4963V15.6237L61.2947 0.350159H65.6042L64.4587 5.64122Z" fill="#009B94"/>
<path d="M21.3652 0.404907L20.2192 5.5869C23.3284 5.5869 25.0197 5.25969 25.947 7.00732C26.1347 7.5321 26.1725 8.09879 26.0561 8.64384C25.2925 12.2426 24.4745 15.8422 23.6023 19.4426H19.2396L21.3104 10.1145C21.3554 9.94493 21.3482 9.76576 21.2899 9.60033C21.2315 9.43491 21.1246 9.29092 20.9832 9.18715C20.8193 9.0233 19.4557 9.07808 19.4557 9.07808L17.0009 19.4421H12.7463L14.8191 10.1688L17.0557 0.404907H21.3652Z" fill="#1D4293"/>
<path d="M33.5296 0.459778L32.7113 3.95096H28.4019L29.2201 0.459778H33.5296Z" fill="#1D4293"/>
<path d="M47.7124 0.350159C47.0022 2.75016 46.4031 5.25973 45.6939 7.55067L46.8941 0.350159H47.7124Z" fill="#1D4293"/>
<path d="M48.8031 0.350159C48.1507 2.69588 47.4938 5.31401 46.7303 7.60444L47.9305 0.350159H48.8031Z" fill="#1D4293"/>
<path d="M49.7853 0.350159C49.0751 2.64109 48.5308 5.25973 47.7668 7.55067C48.094 5.20495 48.477 2.69588 48.967 0.350159H49.7853Z" fill="#1D4293"/>
<path d="M45.7482 0.350159C44.9847 2.69588 44.4936 5.31401 43.6754 7.55067C44.0574 5.25973 44.4389 2.69588 44.8756 0.350159H45.7482Z" fill="#1D4293"/>
<path d="M46.7303 0.350159C46.0211 2.69588 45.421 5.25973 44.6575 7.60444C45.0395 5.25872 45.4758 2.69486 45.9121 0.403932L46.7303 0.350159Z" fill="#1D4293"/>
<path d="M78.5863 7.44154C78.9683 8.20502 78.6954 9.24141 78.5315 10.0054H74.7679C74.8752 9.60505 74.8366 9.17959 74.6589 8.80514C74.2769 8.2598 73.5134 8.31408 72.9133 8.36887C72.6974 8.39984 72.4933 8.48654 72.3212 8.62042C72.1491 8.75431 72.0148 8.93075 71.9316 9.13235C71.865 9.40918 71.9039 9.70089 72.0407 9.95061C73.6772 11.8053 77.3866 11.9143 77.3318 15.0783C77.2227 16.7148 76.5683 18.4604 74.9318 19.1696C73.2953 19.8788 70.4042 19.8798 68.4384 19.3335C67.9883 19.2074 67.5704 18.9864 67.2129 18.6853C66.8554 18.3842 66.5665 18.01 66.3656 17.5879C65.8746 16.6058 66.3109 15.3512 66.5838 14.3148H70.5117C70.457 14.8602 70.1297 15.5151 70.457 16.0604C70.7842 16.6058 71.6572 16.6058 72.2568 16.4967C72.4455 16.4653 72.6217 16.3824 72.7662 16.257C72.9106 16.1317 73.0175 15.9688 73.0751 15.7865C73.126 15.6426 73.1426 15.4888 73.1237 15.3373C73.1047 15.1859 73.0508 15.0409 72.966 14.914C71.6024 13.5504 69.5839 13.1684 68.3294 11.5866C67.0748 10.0049 67.8931 8.09544 68.9295 6.78612C70.7842 4.82239 73.9481 5.04053 76.4024 5.58587C76.888 5.69759 77.3397 5.92439 77.7193 6.24716C78.0989 6.56993 78.3954 6.97921 78.5838 7.44053L78.5863 7.44154Z" fill="#009B94"/>
<path d="M87.6963 19.3345C85.653 19.5994 83.5909 19.6907 81.5322 19.6075C80.9093 19.6537 80.2852 19.5373 79.721 19.2695C79.1568 19.0017 78.6719 18.5918 78.3139 18.08C77.8453 17.2929 77.6896 16.3584 77.8776 15.4619L80.1138 5.58691H84.4765L82.3489 15.1331C82.3161 15.2601 82.3192 15.3937 82.3577 15.519C82.3962 15.6444 82.4687 15.7566 82.567 15.8433C82.949 16.1706 84.1488 16.0072 84.1488 16.0072L86.496 5.58691H90.808L87.6963 19.3345Z" fill="#009B94"/>
<path d="M32.3293 5.64166L29.1658 19.4968H24.8564L28.0747 5.64166H32.3293Z" fill="#1D4293"/>
<path d="M41.4388 5.64166C41.8968 5.67308 42.3332 5.84817 42.6858 6.142C43.0385 6.43583 43.2895 6.83343 43.4031 7.27819C43.5076 7.57541 43.5449 7.89215 43.5121 8.20552L36.4207 8.75086L43.2935 9.29417L36.2026 9.84204L43.0759 10.4422L35.9296 10.9875L36.7479 11.0966L34.7284 19.4968H30.3656L33.5296 5.64166H41.4388Z" fill="#1D4293"/>
<path d="M41.3302 19.4421H36.5297L38.3844 11.1509L42.7471 11.5329C42.7471 11.5329 41.8208 16.8788 41.3302 19.4421Z" fill="#1D4293"/>
<path d="M45.421 19.4421H44.6028L46.7304 11.9692L45.421 19.4421Z" fill="#009B94"/>
<path d="M42.366 19.4426H41.4935C41.4935 19.4426 42.8571 14.2606 43.5663 11.9149C43.2391 14.3696 42.8028 17.0426 42.366 19.4426Z" fill="#009B94"/>
<path d="M44.3847 19.4426H43.5664C44.1665 16.9335 44.93 14.3696 45.694 11.9149C45.312 14.4239 44.8209 17.0426 44.3847 19.4426Z" fill="#009B94"/>
<path d="M43.3481 19.4426H42.5299C43.0752 16.9878 43.8935 14.4239 44.6575 11.9149L43.3481 19.4426Z" fill="#009B94"/>
</g>
<defs>
<clipPath id="clip0_27132_84666">
<rect width="90.8053" height="20" fill="white"/>
</clipPath>
</defs>
</svg>
