<svg width="47" height="47" viewBox="0 0 47 47" fill="none" xmlns="http://www.w3.org/2000/svg">
<path d="M15.2372 29.4369H9.12784L8.14572 33.6372H12.9462L12.1828 37.1827H7.32797L6.34585 41.4922H12.6733L11.855 45.0939H1C1.71021 42.4758 3.23665 37.0752 3.23665 37.0752L10.4909 36.5298L3.7272 35.9825L10.8729 35.4371L3.89157 34.8918L11.0921 34.3464L4.1092 33.7463L5.41852 26.0547H16.0554L15.2372 29.4369Z" fill="#009B94"/>
<path d="M19.8738 31.2911H23.5263L22.7101 34.837H19.0576L17.5814 41.0006C17.5537 41.1521 17.5759 41.3085 17.6448 41.4462C17.7137 41.5839 17.8255 41.6955 17.9634 41.7641C18.8359 42.037 19.9271 41.8189 20.9092 41.8732L20.199 45.0372C18.5625 45.4192 16.4354 45.6373 14.9079 44.8733C14.4048 44.6154 13.9815 44.2252 13.6835 43.7447C13.3856 43.2641 13.2244 42.7115 13.2171 42.1461V41.2736L16.7098 26H21.0193L19.8738 31.2911Z" fill="#009B94"/>
<path d="M34.0014 33.0914C34.3834 33.8549 34.1105 34.8913 33.9466 35.6552H30.183C30.2903 35.2549 30.2517 34.8294 30.074 34.455C29.692 33.9096 28.9285 33.9639 28.3284 34.0187C28.1125 34.0497 27.9084 34.1364 27.7363 34.2703C27.5642 34.4041 27.4299 34.5806 27.3467 34.7822C27.2801 35.059 27.319 35.3507 27.4558 35.6005C29.0923 37.4551 32.8017 37.5642 32.7469 40.7282C32.6378 42.3647 31.9834 44.1103 30.3469 44.8195C28.7104 45.5287 25.8193 45.5297 23.8535 44.9833C23.4034 44.8573 22.9855 44.6362 22.628 44.3351C22.2705 44.034 21.9816 43.6598 21.7807 43.2377C21.2897 42.2556 21.726 41.0011 21.9989 39.9647H25.9268C25.8721 40.51 25.5448 41.1649 25.8721 41.7103C26.1993 42.2556 27.0723 42.2556 27.6719 42.1466C27.8606 42.1152 28.0368 42.0322 28.1813 41.9069C28.3257 41.7815 28.4326 41.6187 28.4902 41.4363C28.5411 41.2924 28.5577 41.1386 28.5388 40.9872C28.5198 40.8357 28.4659 40.6908 28.3811 40.5638C27.0175 39.2002 24.999 38.8182 23.7445 37.2365C22.4899 35.6547 23.3082 33.7453 24.3446 32.436C26.1993 30.4722 29.3632 30.6904 31.8175 31.2357C32.3031 31.3474 32.7548 31.5742 33.1344 31.897C33.514 32.2198 33.8105 32.6291 33.9989 33.0904L34.0014 33.0914Z" fill="#009B94"/>
<path d="M43.1113 44.9844C41.068 45.2492 39.006 45.3405 36.9472 45.2573C36.3244 45.3036 35.7003 45.1871 35.136 44.9193C34.5718 44.6515 34.0869 44.2416 33.729 43.7298C33.2604 42.9427 33.1047 42.0083 33.2927 41.1117L35.5288 31.2368H39.8916L37.764 40.783C37.7312 40.91 37.7343 41.0435 37.7728 41.1689C37.8113 41.2942 37.8837 41.4065 37.9821 41.4932C38.3641 41.8204 39.5638 41.657 39.5638 41.657L41.9111 31.2368H46.2231L43.1113 44.9844Z" fill="#009B94"/>
<path d="M15.4013 3.78812C15.9939 4.13392 16.4772 4.63968 16.7957 5.24744C17.1142 5.8552 17.2551 6.54039 17.2022 7.22452C17.086 8.01562 16.922 8.79896 16.7111 9.57024H12.2916C12.3464 9.18824 12.5097 8.75197 12.5645 8.3157C12.6071 8.12513 12.6046 7.92724 12.5572 7.73781C12.5098 7.54837 12.4189 7.37261 12.2916 7.22452C11.909 6.97405 11.4742 6.81436 11.0204 6.75765C10.5666 6.70094 10.1059 6.74871 9.67345 6.89731C9.32626 7.0565 9.03872 7.322 8.8524 7.65541C8.66609 7.98882 8.59067 8.37286 8.63705 8.75197C8.74612 9.89744 10.3826 10.6066 10.8737 10.9333C12.5102 12.0245 15.3465 13.2243 15.2922 15.7881C15.3841 17.6974 14.8264 19.5814 13.71 21.1329C11.7462 23.2636 8.52747 23.0982 5.74599 22.8801C4.38239 22.6071 2.90972 22.0618 2.36387 20.7525C1.81803 19.4432 1.9276 17.3704 2.41866 15.8429H6.67332C6.50946 16.6069 5.85506 18.1907 7.00052 18.8978C7.41419 19.1463 7.88958 19.2729 8.37202 19.2632C8.85446 19.2535 9.32437 19.1079 9.72773 18.843C10.08 18.5291 10.3343 18.1204 10.4603 17.6657C10.5862 17.211 10.5785 16.7296 10.4379 16.2792C10.2198 15.569 9.51061 15.2428 8.96679 14.8588C7.54637 13.8766 5.91187 13.0041 4.76641 11.6948C3.62094 10.3855 4.05518 6.84252 5.30972 5.20397C6.56425 3.56542 9.99862 2.86079 12.8395 3.02261C13.7356 3.10621 14.6062 3.36638 15.4013 3.78812Z" fill="#1D4293"/>
<path d="M23.3653 3.40619L22.2193 8.58818C25.3285 8.58818 27.0198 8.26098 27.9471 10.0086C28.1348 10.5334 28.1726 11.1001 28.0562 11.6451C27.2926 15.2439 26.4746 18.8434 25.6024 22.4439H21.2397L23.3105 13.1158C23.3555 12.9462 23.3483 12.767 23.29 12.6016C23.2316 12.4362 23.1247 12.2922 22.9833 12.1884C22.8194 12.0246 21.4558 12.0794 21.4558 12.0794L19.001 22.4433H14.7464L16.8192 13.17L19.0558 3.40619H23.3653Z" fill="#1D4293"/>
<path d="M35.5297 3.46106L34.7114 6.95225H30.402L31.2202 3.46106H35.5297Z" fill="#1D4293"/>
<path d="M34.3294 8.64294L31.166 22.4981H26.8565L30.0748 8.64294H34.3294Z" fill="#1D4293"/>
<path d="M43.4389 8.64294C43.8969 8.67436 44.3333 8.84945 44.6859 9.14328C45.0386 9.43711 45.2896 9.83471 45.4032 10.2795C45.5078 10.5767 45.545 10.8934 45.5122 11.2068L38.4208 11.7521L45.2936 12.2954L38.2027 12.8433L45.076 13.4435L37.9297 13.9888L38.748 14.0979L36.7285 22.4981H32.3658L35.5297 8.64294H43.4389Z" fill="#1D4293"/>
<path d="M43.3303 22.4434H38.5298L40.3844 14.1522L44.7472 14.5342C44.7472 14.5342 43.8208 19.8801 43.3303 22.4434Z" fill="#1D4293"/>
</svg>
